# Blender v3.2.0 OBJ File: 'secchiello.blend'
# www.blender.org
mtllib secchiello.mtl
o Cylinder
v -0.062542 0.831118 -0.308946
v -0.078609 0.043673 -0.389720
v -0.121097 0.831118 -0.291184
v -0.152614 0.043673 -0.367271
v -0.175062 0.831118 -0.262339
v -0.220817 0.043673 -0.330816
v -0.222362 0.831118 -0.223521
v -0.280597 0.043673 -0.281756
v -0.261181 0.831118 -0.176220
v -0.329658 0.043673 -0.221975
v -0.290025 0.831118 -0.122256
v -0.366113 0.043673 -0.153772
v -0.307788 0.831118 -0.063700
v -0.388562 0.043673 -0.079767
v -0.313786 0.831118 -0.002805
v -0.396142 0.043673 -0.002805
v -0.307788 0.831118 0.058090
v -0.388562 0.043673 0.074157
v -0.290025 0.831118 0.116645
v -0.366113 0.043673 0.148162
v -0.261181 0.831118 0.170610
v -0.329658 0.043673 0.216365
v -0.222362 0.831118 0.217910
v -0.280597 0.043673 0.276145
v -0.175062 0.831118 0.256729
v -0.220817 0.043673 0.325206
v -0.121097 0.831118 0.285574
v -0.152614 0.043673 0.361661
v -0.062542 0.831118 0.303336
v -0.078609 0.043673 0.384110
v -0.001647 0.831118 0.309334
v -0.001647 0.043673 0.391690
v 0.059249 0.831118 0.303336
v 0.075315 0.043673 0.384110
v 0.117804 0.831118 0.285574
v 0.149320 0.043673 0.361661
v 0.171768 0.831118 0.256729
v 0.217523 0.043673 0.325206
v 0.219069 0.831118 0.217910
v 0.277304 0.043673 0.276145
v 0.257887 0.831118 0.170610
v 0.326364 0.043673 0.216365
v 0.286732 0.831118 0.116645
v 0.362819 0.043673 0.148162
v 0.304494 0.831118 0.058090
v 0.385268 0.043673 0.074157
v 0.310492 0.831118 -0.002805
v 0.392849 0.043673 -0.002805
v 0.304494 0.831118 -0.063700
v 0.385268 0.043673 -0.079767
v 0.286732 0.831118 -0.122256
v 0.362819 0.043673 -0.153772
v 0.257887 0.831118 -0.176220
v 0.326364 0.043673 -0.221975
v 0.219069 0.831118 -0.223521
v 0.277304 0.043673 -0.281756
v 0.171768 0.831118 -0.262339
v 0.217523 0.043673 -0.330816
v 0.117804 0.831118 -0.291184
v 0.149320 0.043673 -0.367271
v 0.059249 0.831118 -0.308946
v 0.075315 0.043673 -0.389720
v -0.001647 0.831118 -0.314944
v -0.001647 0.043673 -0.397301
vt 1.000000 0.500000
vt 1.000000 1.000000
vt 0.968750 1.000000
vt 0.968750 0.500000
vt 0.968750 0.500000
vt 0.968750 1.000000
vt 0.937500 1.000000
vt 0.937500 0.500000
vt 0.937500 0.500000
vt 0.937500 1.000000
vt 0.906250 1.000000
vt 0.906250 0.500000
vt 0.906250 0.500000
vt 0.906250 1.000000
vt 0.875000 1.000000
vt 0.875000 0.500000
vt 0.875000 0.500000
vt 0.875000 1.000000
vt 0.843750 1.000000
vt 0.843750 0.500000
vt 0.843750 0.500000
vt 0.843750 1.000000
vt 0.812500 1.000000
vt 0.812500 0.500000
vt 0.812500 0.500000
vt 0.812500 1.000000
vt 0.781250 1.000000
vt 0.781250 0.500000
vt 0.781250 0.500000
vt 0.781250 1.000000
vt 0.750000 1.000000
vt 0.750000 0.500000
vt 0.750000 0.500000
vt 0.750000 1.000000
vt 0.718750 1.000000
vt 0.718750 0.500000
vt 0.718750 0.500000
vt 0.718750 1.000000
vt 0.687500 1.000000
vt 0.687500 0.500000
vt 0.687500 0.500000
vt 0.687500 1.000000
vt 0.656250 1.000000
vt 0.656250 0.500000
vt 0.656250 0.500000
vt 0.656250 1.000000
vt 0.625000 1.000000
vt 0.625000 0.500000
vt 0.625000 0.500000
vt 0.625000 1.000000
vt 0.593750 1.000000
vt 0.593750 0.500000
vt 0.593750 0.500000
vt 0.593750 1.000000
vt 0.562500 1.000000
vt 0.562500 0.500000
vt 0.562500 0.500000
vt 0.562500 1.000000
vt 0.531250 1.000000
vt 0.531250 0.500000
vt 0.531250 0.500000
vt 0.531250 1.000000
vt 0.500000 1.000000
vt 0.500000 0.500000
vt 0.500000 0.500000
vt 0.500000 1.000000
vt 0.468750 1.000000
vt 0.468750 0.500000
vt 0.468750 0.500000
vt 0.468750 1.000000
vt 0.437500 1.000000
vt 0.437500 0.500000
vt 0.437500 0.500000
vt 0.437500 1.000000
vt 0.406250 1.000000
vt 0.406250 0.500000
vt 0.406250 0.500000
vt 0.406250 1.000000
vt 0.375000 1.000000
vt 0.375000 0.500000
vt 0.375000 0.500000
vt 0.375000 1.000000
vt 0.343750 1.000000
vt 0.343750 0.500000
vt 0.343750 0.500000
vt 0.343750 1.000000
vt 0.312500 1.000000
vt 0.312500 0.500000
vt 0.312500 0.500000
vt 0.312500 1.000000
vt 0.281250 1.000000
vt 0.281250 0.500000
vt 0.250000 1.000000
vt 0.250000 0.500000
vt 0.218750 1.000000
vt 0.218750 0.500000
vt 0.187500 1.000000
vt 0.187500 0.500000
vt 0.156250 1.000000
vt 0.156250 0.500000
vt 0.125000 1.000000
vt 0.125000 0.500000
vt 0.093750 1.000000
vt 0.093750 0.500000
vt 0.062500 1.000000
vt 0.062500 0.500000
vt 0.031250 1.000000
vt 0.031250 0.500000
vt 0.000000 1.000000
vt 0.000000 0.500000
vt 0.014612 0.203178
vt 0.028269 0.158156
vt 0.050447 0.116663
vt 0.080294 0.080294
vt 0.116663 0.050447
vt 0.158156 0.028269
vt 0.203178 0.014612
vt 0.250000 0.010000
vt 0.296822 0.014612
vt 0.341844 0.028269
vt 0.383337 0.050447
vt 0.419706 0.080294
vt 0.449553 0.116663
vt 0.471731 0.158156
vt 0.485388 0.203178
vt 0.490000 0.250000
vt 0.485388 0.296822
vt 0.471731 0.341844
vt 0.449553 0.383337
vt 0.419706 0.419706
vt 0.383337 0.449553
vt 0.341844 0.471731
vt 0.296822 0.485388
vt 0.250000 0.490000
vt 0.203178 0.485388
vt 0.158156 0.471731
vt 0.116663 0.449553
vt 0.080294 0.419706
vt 0.050447 0.383337
vt 0.028269 0.341844
vt 0.014612 0.296822
vt 0.010000 0.250000
vn -0.8772 0.1035 0.4689
vn -0.7689 0.1035 0.6310
vn -0.6310 0.1035 0.7689
vn -0.4689 0.1035 0.8772
vn -0.2887 0.1035 0.9518
vn -0.0975 0.1035 0.9898
vn 0.0975 0.1035 0.9898
vn 0.2887 0.1035 0.9518
vn 0.4689 0.1035 0.8772
vn 0.6310 0.1035 0.7689
vn 0.7689 0.1035 0.6310
vn 0.8772 0.1035 0.4689
vn 0.9518 0.1035 0.2887
vn 0.9898 0.1035 0.0975
vn 0.9898 0.1035 -0.0975
vn 0.9518 0.1035 -0.2887
vn 0.8772 0.1035 -0.4689
vn 0.7689 0.1035 -0.6310
vn 0.6310 0.1035 -0.7689
vn 0.4689 0.1035 -0.8772
vn 0.2887 0.1035 -0.9518
vn 0.0975 0.1035 -0.9898
vn -0.9518 0.1035 0.2887
vn -0.9898 0.1035 0.0975
vn -0.9898 0.1035 -0.0975
vn -0.9518 0.1035 -0.2887
vn -0.8772 0.1035 -0.4689
vn -0.7689 0.1035 -0.6310
vn -0.6310 0.1035 -0.7689
vn -0.4689 0.1035 -0.8772
vn -0.2887 0.1035 -0.9518
vn -0.0975 0.1035 -0.9898
vn 0.0000 1.0000 0.0000
g Cylinder_Cylinder_Material.001
usemtl Material.001
s off
f 22/1/1 21/2/1 19/3/1 20/4/1
f 24/5/2 23/6/2 21/7/2 22/8/2
f 26/9/3 25/10/3 23/11/3 24/12/3
f 28/13/4 27/14/4 25/15/4 26/16/4
f 30/17/5 29/18/5 27/19/5 28/20/5
f 32/21/6 31/22/6 29/23/6 30/24/6
f 34/25/7 33/26/7 31/27/7 32/28/7
f 36/29/8 35/30/8 33/31/8 34/32/8
f 38/33/9 37/34/9 35/35/9 36/36/9
f 40/37/10 39/38/10 37/39/10 38/40/10
f 42/41/11 41/42/11 39/43/11 40/44/11
f 44/45/12 43/46/12 41/47/12 42/48/12
f 46/49/13 45/50/13 43/51/13 44/52/13
f 48/53/14 47/54/14 45/55/14 46/56/14
f 50/57/15 49/58/15 47/59/15 48/60/15
f 52/61/16 51/62/16 49/63/16 50/64/16
f 54/65/17 53/66/17 51/67/17 52/68/17
f 56/69/18 55/70/18 53/71/18 54/72/18
f 58/73/19 57/74/19 55/75/19 56/76/19
f 60/77/20 59/78/20 57/79/20 58/80/20
f 62/81/21 61/82/21 59/83/21 60/84/21
f 64/85/22 63/86/22 61/87/22 62/88/22
f 20/89/23 19/90/23 17/91/23 18/92/23
f 18/92/24 17/91/24 15/93/24 16/94/24
f 16/94/25 15/93/25 13/95/25 14/96/25
f 14/96/26 13/95/26 11/97/26 12/98/26
f 12/98/27 11/97/27 9/99/27 10/100/27
f 10/100/28 9/99/28 7/101/28 8/102/28
f 8/102/29 7/101/29 5/103/29 6/104/29
f 6/104/30 5/103/30 3/105/30 4/106/30
f 4/106/31 3/105/31 1/107/31 2/108/31
f 2/108/32 1/107/32 63/109/32 64/110/32
f 17/111/33 19/112/33 21/113/33 23/114/33 25/115/33 27/116/33 29/117/33 31/118/33 33/119/33 35/120/33 37/121/33 39/122/33 41/123/33 43/124/33 45/125/33 47/126/33 49/127/33 51/128/33 53/129/33 55/130/33 57/131/33 59/132/33 61/133/33 63/134/33 1/135/33 3/136/33 5/137/33 7/138/33 9/139/33 11/140/33 13/141/33 15/142/33
o Cylinder.001
v -0.085280 0.031772 -0.423260
v -0.165700 0.031772 -0.398865
v -0.239815 0.031772 -0.359249
v -0.304777 0.031772 -0.305936
v -0.358091 0.031772 -0.240973
v -0.397706 0.031772 -0.166858
v -0.422101 0.031772 -0.086439
v -0.430338 0.031772 -0.002805
v -0.422101 0.031772 0.080828
v -0.397706 0.031772 0.161248
v -0.358091 0.031772 0.235363
v -0.304777 0.031772 0.300325
v -0.239815 0.031772 0.353639
v -0.165700 0.031772 0.393254
v -0.085280 0.031772 0.417649
v -0.001647 0.031772 0.425886
v 0.081987 0.031772 0.417649
v 0.162406 0.031772 0.393254
v 0.236521 0.031772 0.353639
v 0.301484 0.031772 0.300325
v 0.354797 0.031772 0.235363
v 0.394413 0.031772 0.161248
v 0.418808 0.031772 0.080828
v 0.427045 0.031772 -0.002805
v 0.418808 0.031772 -0.086439
v 0.394413 0.031772 -0.166858
v 0.354797 0.031772 -0.240973
v 0.301484 0.031772 -0.305936
v 0.236521 0.031772 -0.359249
v 0.162406 0.031772 -0.398865
v 0.081987 0.031772 -0.423260
v -0.001647 0.031772 -0.431497
v -0.075923 0.031772 -0.376218
v -0.001647 0.031772 -0.383533
v -0.147345 0.031772 -0.354552
v -0.213168 0.031772 -0.319369
v -0.270862 0.031772 -0.272021
v -0.318211 0.031772 -0.214326
v -0.353394 0.031772 -0.148504
v -0.375059 0.031772 -0.077082
v -0.382375 0.031772 -0.002805
v -0.375059 0.031772 0.071471
v -0.353394 0.031772 0.142893
v -0.318211 0.031772 0.208716
v -0.270862 0.031772 0.266410
v -0.213168 0.031772 0.313759
v -0.147345 0.031772 0.348942
v -0.075923 0.031772 0.370607
v -0.001647 0.031772 0.377923
v 0.072630 0.031772 0.370607
v 0.144052 0.031772 0.348942
v 0.209874 0.031772 0.313759
v 0.267569 0.031772 0.266410
v 0.314917 0.031772 0.208716
v 0.350100 0.031772 0.142893
v 0.371766 0.031772 0.071471
v 0.379081 0.031772 -0.002805
v 0.371766 0.031772 -0.077082
v 0.350100 0.031772 -0.148504
v 0.314917 0.031772 -0.214326
v 0.267569 0.031772 -0.272021
v 0.209874 0.031772 -0.319369
v 0.144052 0.031772 -0.354552
v 0.072630 0.031772 -0.376218
v -0.075923 0.073039 -0.376218
v -0.001647 0.073039 -0.383533
v -0.147345 0.073039 -0.354552
v -0.213168 0.073039 -0.319369
v -0.270862 0.073039 -0.272021
v -0.318211 0.073039 -0.214326
v -0.353394 0.073039 -0.148504
v -0.375059 0.073039 -0.077082
v -0.382375 0.073039 -0.002805
v -0.375059 0.073039 0.071471
v -0.353394 0.073039 0.142893
v -0.318211 0.073039 0.208716
v -0.270862 0.073039 0.266410
v -0.213168 0.073039 0.313759
v -0.147345 0.073039 0.348942
v -0.075923 0.073039 0.370607
v -0.001647 0.073039 0.377923
v 0.072630 0.073039 0.370607
v 0.144052 0.073039 0.348942
v 0.209874 0.073039 0.313759
v 0.267569 0.073039 0.266410
v 0.314917 0.073039 0.208716
v 0.350100 0.073039 0.142893
v 0.371766 0.073039 0.071471
v 0.379081 0.073039 -0.002805
v 0.371766 0.073039 -0.077082
v 0.350100 0.073039 -0.148504
v 0.314917 0.073039 -0.214326
v 0.267569 0.073039 -0.272021
v 0.209874 0.073039 -0.319369
v 0.144052 0.073039 -0.354552
v 0.072630 0.073039 -0.376218
v -0.085280 0.073039 -0.423260
v -0.001647 0.073039 -0.431497
v -0.165700 0.073039 -0.398865
v -0.239815 0.073039 -0.359249
v -0.304777 0.073039 -0.305936
v -0.358091 0.073039 -0.240973
v -0.397706 0.073039 -0.166858
v -0.422101 0.073039 -0.086439
v -0.430338 0.073039 -0.002805
v -0.422101 0.073039 0.080828
v -0.397706 0.073039 0.161248
v -0.358091 0.073039 0.235363
v -0.304777 0.073039 0.300325
v -0.239815 0.073039 0.353639
v -0.165700 0.073039 0.393254
v -0.085280 0.073039 0.417649
v -0.001647 0.073039 0.425886
v 0.081987 0.073039 0.417649
v 0.162406 0.073039 0.393254
v 0.236521 0.073039 0.353639
v 0.301484 0.073039 0.300325
v 0.354797 0.073039 0.235363
v 0.394413 0.073039 0.161248
v 0.418808 0.073039 0.080828
v 0.427045 0.073039 -0.002805
v 0.418808 0.073039 -0.086439
v 0.394413 0.073039 -0.166858
v 0.354797 0.073039 -0.240973
v 0.301484 0.073039 -0.305936
v 0.236521 0.073039 -0.359249
v 0.162406 0.073039 -0.398865
v 0.081987 0.073039 -0.423260
vt 0.750000 0.463148
vt 0.708417 0.459052
vt 0.703178 0.485388
vt 0.750000 0.490000
vt 0.750000 0.463148
vt 0.750000 0.490000
vt 0.703178 0.485388
vt 0.708417 0.459052
vt 0.658156 0.471731
vt 0.668431 0.446923
vt 0.616663 0.449553
vt 0.631581 0.427226
vt 0.580294 0.419706
vt 0.599282 0.400718
vt 0.550447 0.383337
vt 0.572774 0.368419
vt 0.528269 0.341844
vt 0.553077 0.331568
vt 0.514612 0.296822
vt 0.540947 0.291583
vt 0.510000 0.250000
vt 0.536852 0.250000
vt 0.514612 0.203178
vt 0.540947 0.208417
vt 0.528269 0.158156
vt 0.553077 0.168432
vt 0.550447 0.116663
vt 0.572774 0.131581
vt 0.580294 0.080294
vt 0.599282 0.099282
vt 0.616663 0.050447
vt 0.631581 0.072774
vt 0.658156 0.028269
vt 0.668432 0.053077
vt 0.703178 0.014612
vt 0.708417 0.040948
vt 0.750000 0.010000
vt 0.750000 0.036852
vt 0.796822 0.014612
vt 0.791583 0.040948
vt 0.841844 0.028269
vt 0.831568 0.053077
vt 0.883337 0.050447
vt 0.868419 0.072774
vt 0.919706 0.080294
vt 0.900718 0.099282
vt 0.949553 0.116663
vt 0.927226 0.131581
vt 0.971731 0.158156
vt 0.946923 0.168432
vt 0.985388 0.203178
vt 0.959052 0.208417
vt 0.990000 0.250000
vt 0.963148 0.250000
vt 0.985388 0.296822
vt 0.959052 0.291583
vt 0.971731 0.341844
vt 0.946923 0.331568
vt 0.949553 0.383337
vt 0.927226 0.368419
vt 0.919706 0.419706
vt 0.900718 0.400718
vt 0.883337 0.449553
vt 0.868419 0.427226
vt 0.841844 0.471731
vt 0.831568 0.446923
vt 0.796822 0.485388
vt 0.791583 0.459052
vt 0.668431 0.446923
vt 0.658156 0.471731
vt 0.631581 0.427226
vt 0.616663 0.449553
vt 0.599282 0.400718
vt 0.580294 0.419706
vt 0.572774 0.368419
vt 0.550447 0.383337
vt 0.553077 0.331568
vt 0.528269 0.341844
vt 0.540947 0.291583
vt 0.514612 0.296822
vt 0.536852 0.250000
vt 0.510000 0.250000
vt 0.540947 0.208417
vt 0.514612 0.203178
vt 0.553077 0.168432
vt 0.528269 0.158156
vt 0.572774 0.131581
vt 0.550447 0.116663
vt 0.599282 0.099282
vt 0.580294 0.080294
vt 0.631581 0.072774
vt 0.616663 0.050447
vt 0.668432 0.053077
vt 0.658156 0.028269
vt 0.708417 0.040948
vt 0.703178 0.014612
vt 0.750000 0.036852
vt 0.750000 0.010000
vt 0.791583 0.040948
vt 0.796822 0.014612
vt 0.831568 0.053077
vt 0.841844 0.028269
vt 0.868419 0.072774
vt 0.883337 0.050447
vt 0.900718 0.099282
vt 0.919706 0.080294
vt 0.927226 0.131581
vt 0.949553 0.116663
vt 0.946923 0.168432
vt 0.971731 0.158156
vt 0.959052 0.208417
vt 0.985388 0.203178
vt 0.963148 0.250000
vt 0.990000 0.250000
vt 0.959052 0.291583
vt 0.985388 0.296822
vt 0.946923 0.331568
vt 0.971731 0.341844
vt 0.927226 0.368419
vt 0.949553 0.383337
vt 0.900718 0.400718
vt 0.919706 0.419706
vt 0.868419 0.427226
vt 0.883337 0.449553
vt 0.831568 0.446923
vt 0.841844 0.471731
vt 0.791583 0.459052
vt 0.796822 0.485388
vn 0.0000 -0.7298 -0.6836
vn -0.1334 -0.7298 -0.6705
vn 0.1420 -0.6857 0.7139
vn 0.0000 -0.6857 0.7279
vn 0.0000 0.7298 -0.6836
vn 0.0000 0.6857 0.7279
vn 0.1420 0.6857 0.7139
vn -0.1334 0.7298 -0.6705
vn 0.2786 0.6857 0.6725
vn -0.2616 0.7298 -0.6316
vn 0.4044 0.6857 0.6052
vn -0.3798 0.7298 -0.5684
vn 0.5147 0.6857 0.5147
vn -0.4834 0.7298 -0.4834
vn 0.6052 0.6857 0.4044
vn -0.5684 0.7298 -0.3798
vn 0.6725 0.6857 0.2786
vn -0.6316 0.7298 -0.2616
vn 0.7139 0.6857 0.1420
vn -0.6705 0.7298 -0.1334
vn 0.7279 0.6857 0.0000
vn -0.6836 0.7298 -0.0000
vn 0.7139 0.6857 -0.1420
vn -0.6705 0.7298 0.1334
vn 0.6725 0.6857 -0.2786
vn -0.6316 0.7298 0.2616
vn 0.6052 0.6857 -0.4044
vn -0.5684 0.7298 0.3798
vn 0.5147 0.6857 -0.5147
vn -0.4834 0.7298 0.4834
vn 0.4044 0.6857 -0.6052
vn -0.3798 0.7298 0.5684
vn 0.2786 0.6857 -0.6725
vn -0.2616 0.7298 0.6316
vn 0.1420 0.6857 -0.7139
vn -0.1334 0.7298 0.6705
vn 0.0000 0.6857 -0.7279
vn 0.0000 0.7298 0.6836
vn -0.1420 0.6857 -0.7139
vn 0.1334 0.7298 0.6705
vn -0.2786 0.6857 -0.6725
vn 0.2616 0.7298 0.6316
vn -0.4044 0.6857 -0.6052
vn 0.3798 0.7298 0.5684
vn -0.5147 0.6857 -0.5147
vn 0.4834 0.7298 0.4834
vn -0.6052 0.6857 -0.4044
vn 0.5684 0.7298 0.3798
vn -0.6725 0.6857 -0.2786
vn 0.6316 0.7298 0.2616
vn -0.7139 0.6857 -0.1420
vn 0.6705 0.7298 0.1334
vn -0.7279 0.6857 0.0000
vn 0.6836 0.7298 -0.0000
vn -0.7139 0.6857 0.1420
vn 0.6705 0.7298 -0.1334
vn -0.6725 0.6857 0.2786
vn 0.6316 0.7298 -0.2616
vn -0.6052 0.6857 0.4044
vn 0.5684 0.7298 -0.3798
vn -0.5147 0.6857 0.5147
vn 0.4834 0.7298 -0.4834
vn -0.4044 0.6857 0.6052
vn 0.3798 0.7298 -0.5684
vn -0.2786 0.6857 0.6725
vn 0.2616 0.7298 -0.6316
vn -0.1420 0.6857 0.7139
vn 0.1334 0.7298 -0.6705
vn -0.2616 -0.7298 -0.6316
vn 0.2786 -0.6857 0.6725
vn -0.3798 -0.7298 -0.5684
vn 0.4044 -0.6857 0.6052
vn -0.4834 -0.7298 -0.4834
vn 0.5147 -0.6857 0.5147
vn -0.5684 -0.7298 -0.3798
vn 0.6052 -0.6857 0.4044
vn -0.6316 -0.7298 -0.2616
vn 0.6725 -0.6857 0.2786
vn -0.6705 -0.7298 -0.1334
vn 0.7139 -0.6857 0.1420
vn -0.6836 -0.7298 0.0000
vn 0.7279 -0.6857 0.0000
vn -0.6705 -0.7298 0.1334
vn 0.7139 -0.6857 -0.1420
vn -0.6316 -0.7298 0.2616
vn 0.6725 -0.6857 -0.2786
vn -0.5684 -0.7298 0.3798
vn 0.6052 -0.6857 -0.4044
vn -0.4834 -0.7298 0.4834
vn 0.5147 -0.6857 -0.5147
vn -0.3798 -0.7298 0.5684
vn 0.4044 -0.6857 -0.6052
vn -0.2616 -0.7298 0.6316
vn 0.2786 -0.6857 -0.6725
vn -0.1334 -0.7298 0.6705
vn 0.1420 -0.6857 -0.7139
vn 0.0000 -0.7298 0.6836
vn 0.0000 -0.6857 -0.7279
vn 0.1334 -0.7298 0.6705
vn -0.1420 -0.6857 -0.7139
vn 0.2616 -0.7298 0.6316
vn -0.2786 -0.6857 -0.6725
vn 0.3798 -0.7298 0.5684
vn -0.4044 -0.6857 -0.6052
vn 0.4834 -0.7298 0.4834
vn -0.5147 -0.6857 -0.5147
vn 0.5684 -0.7298 0.3798
vn -0.6052 -0.6857 -0.4044
vn 0.6316 -0.7298 0.2616
vn -0.6725 -0.6857 -0.2786
vn 0.6705 -0.7298 0.1334
vn -0.7139 -0.6857 -0.1420
vn 0.6836 -0.7298 -0.0000
vn -0.7279 -0.6857 -0.0000
vn 0.6705 -0.7298 -0.1334
vn -0.7139 -0.6857 0.1420
vn 0.6316 -0.7298 -0.2616
vn -0.6725 -0.6857 0.2786
vn 0.5684 -0.7298 -0.3798
vn -0.6052 -0.6857 0.4044
vn 0.4834 -0.7298 -0.4834
vn -0.5147 -0.6857 0.5147
vn 0.3798 -0.7298 -0.5684
vn -0.4044 -0.6857 0.6052
vn 0.2616 -0.7298 -0.6316
vn -0.2786 -0.6857 0.6725
vn 0.1334 -0.7298 -0.6705
vn -0.1420 -0.6857 0.7139
g Cylinder.001_Cylinder.001_Material.001
usemtl Material.001
s 1
f 130/143/34 129/144/35 161/145/36 162/146/37
f 98/147/38 96/148/39 65/149/40 97/150/41
f 97/150/41 65/149/40 66/151/42 99/152/43
f 99/152/43 66/151/42 67/153/44 100/154/45
f 100/154/45 67/153/44 68/155/46 101/156/47
f 101/156/47 68/155/46 69/157/48 102/158/49
f 102/158/49 69/157/48 70/159/50 103/160/51
f 103/160/51 70/159/50 71/161/52 104/162/53
f 104/162/53 71/161/52 72/163/54 105/164/55
f 105/164/55 72/163/54 73/165/56 106/166/57
f 106/166/57 73/165/56 74/167/58 107/168/59
f 107/168/59 74/167/58 75/169/60 108/170/61
f 108/170/61 75/169/60 76/171/62 109/172/63
f 109/172/63 76/171/62 77/173/64 110/174/65
f 110/174/65 77/173/64 78/175/66 111/176/67
f 111/176/67 78/175/66 79/177/68 112/178/69
f 112/178/69 79/177/68 80/179/70 113/180/71
f 113/180/71 80/179/70 81/181/72 114/182/73
f 114/182/73 81/181/72 82/183/74 115/184/75
f 115/184/75 82/183/74 83/185/76 116/186/77
f 116/186/77 83/185/76 84/187/78 117/188/79
f 117/188/79 84/187/78 85/189/80 118/190/81
f 118/190/81 85/189/80 86/191/82 119/192/83
f 119/192/83 86/191/82 87/193/84 120/194/85
f 120/194/85 87/193/84 88/195/86 121/196/87
f 121/196/87 88/195/86 89/197/88 122/198/89
f 122/198/89 89/197/88 90/199/90 123/200/91
f 123/200/91 90/199/90 91/201/92 124/202/93
f 124/202/93 91/201/92 92/203/94 125/204/95
f 125/204/95 92/203/94 93/205/96 126/206/97
f 126/206/97 93/205/96 94/207/98 127/208/99
f 127/208/99 94/207/98 95/209/100 128/210/101
f 128/210/101 95/209/100 96/148/39 98/147/38
f 129/144/35 131/211/102 163/212/103 161/145/36
f 131/211/102 132/213/104 164/214/105 163/212/103
f 132/213/104 133/215/106 165/216/107 164/214/105
f 133/215/106 134/217/108 166/218/109 165/216/107
f 134/217/108 135/219/110 167/220/111 166/218/109
f 135/219/110 136/221/112 168/222/113 167/220/111
f 136/221/112 137/223/114 169/224/115 168/222/113
f 137/223/114 138/225/116 170/226/117 169/224/115
f 138/225/116 139/227/118 171/228/119 170/226/117
f 139/227/118 140/229/120 172/230/121 171/228/119
f 140/229/120 141/231/122 173/232/123 172/230/121
f 141/231/122 142/233/124 174/234/125 173/232/123
f 142/233/124 143/235/126 175/236/127 174/234/125
f 143/235/126 144/237/128 176/238/129 175/236/127
f 144/237/128 145/239/130 177/240/131 176/238/129
f 145/239/130 146/241/132 178/242/133 177/240/131
f 146/241/132 147/243/134 179/244/135 178/242/133
f 147/243/134 148/245/136 180/246/137 179/244/135
f 148/245/136 149/247/138 181/248/139 180/246/137
f 149/247/138 150/249/140 182/250/141 181/248/139
f 150/249/140 151/251/142 183/252/143 182/250/141
f 151/251/142 152/253/144 184/254/145 183/252/143
f 152/253/144 153/255/146 185/256/147 184/254/145
f 153/255/146 154/257/148 186/258/149 185/256/147
f 154/257/148 155/259/150 187/260/151 186/258/149
f 155/259/150 156/261/152 188/262/153 187/260/151
f 156/261/152 157/263/154 189/264/155 188/262/153
f 157/263/154 158/265/156 190/266/157 189/264/155
f 158/265/156 159/267/158 191/268/159 190/266/157
f 159/267/158 160/269/160 192/270/161 191/268/159
f 160/269/160 130/143/34 162/146/37 192/270/161
f 73/165/56 72/163/54 169/224/115 170/226/117
f 111/176/67 112/178/69 144/237/128 143/235/126
f 74/167/58 73/165/56 170/226/117 171/228/119
f 112/178/69 113/180/71 145/239/130 144/237/128
f 75/169/60 74/167/58 171/228/119 172/230/121
f 113/180/71 114/182/73 146/241/132 145/239/130
f 76/171/62 75/169/60 172/230/121 173/232/123
f 114/182/73 115/184/75 147/243/134 146/241/132
f 77/173/64 76/171/62 173/232/123 174/234/125
f 115/184/75 116/186/77 148/245/136 147/243/134
f 78/175/66 77/173/64 174/234/125 175/236/127
f 116/186/77 117/188/79 149/247/138 148/245/136
f 79/177/68 78/175/66 175/236/127 176/238/129
f 117/188/79 118/190/81 150/249/140 149/247/138
f 80/179/70 79/177/68 176/238/129 177/240/131
f 118/190/81 119/192/83 151/251/142 150/249/140
f 81/181/72 80/179/70 177/240/131 178/242/133
f 119/192/83 120/194/85 152/253/144 151/251/142
f 82/183/74 81/181/72 178/242/133 179/244/135
f 120/194/85 121/196/87 153/255/146 152/253/144
f 83/185/76 82/183/74 179/244/135 180/246/137
f 121/196/87 122/198/89 154/257/148 153/255/146
f 84/187/78 83/185/76 180/246/137 181/248/139
f 122/198/89 123/200/91 155/259/150 154/257/148
f 85/189/80 84/187/78 181/248/139 182/250/141
f 123/200/91 124/202/93 156/261/152 155/259/150
f 98/147/38 97/150/41 129/144/35 130/143/34
f 86/191/82 85/189/80 182/250/141 183/252/143
f 124/202/93 125/204/95 157/263/154 156/261/152
f 97/150/41 99/152/43 131/211/102 129/144/35
f 87/193/84 86/191/82 183/252/143 184/254/145
f 125/204/95 126/206/97 158/265/156 157/263/154
f 99/152/43 100/154/45 132/213/104 131/211/102
f 88/195/86 87/193/84 184/254/145 185/256/147
f 126/206/97 127/208/99 159/267/158 158/265/156
f 100/154/45 101/156/47 133/215/106 132/213/104
f 89/197/88 88/195/86 185/256/147 186/258/149
f 127/208/99 128/210/101 160/269/160 159/267/158
f 101/156/47 102/158/49 134/217/108 133/215/106
f 90/199/90 89/197/88 186/258/149 187/260/151
f 128/210/101 98/147/38 130/143/34 160/269/160
f 102/158/49 103/160/51 135/219/110 134/217/108
f 91/201/92 90/199/90 187/260/151 188/262/153
f 65/149/40 96/148/39 162/146/37 161/145/36
f 103/160/51 104/162/53 136/221/112 135/219/110
f 92/203/94 91/201/92 188/262/153 189/264/155
f 66/151/42 65/149/40 161/145/36 163/212/103
f 104/162/53 105/164/55 137/223/114 136/221/112
f 93/205/96 92/203/94 189/264/155 190/266/157
f 67/153/44 66/151/42 163/212/103 164/214/105
f 105/164/55 106/166/57 138/225/116 137/223/114
f 94/207/98 93/205/96 190/266/157 191/268/159
f 68/155/46 67/153/44 164/214/105 165/216/107
f 106/166/57 107/168/59 139/227/118 138/225/116
f 95/209/100 94/207/98 191/268/159 192/270/161
f 69/157/48 68/155/46 165/216/107 166/218/109
f 107/168/59 108/170/61 140/229/120 139/227/118
f 96/148/39 95/209/100 192/270/161 162/146/37
f 70/159/50 69/157/48 166/218/109 167/220/111
f 108/170/61 109/172/63 141/231/122 140/229/120
f 71/161/52 70/159/50 167/220/111 168/222/113
f 109/172/63 110/174/65 142/233/124 141/231/122
f 72/163/54 71/161/52 168/222/113 169/224/115
f 110/174/65 111/176/67 143/235/126 142/233/124
